<svg xmlns="http://www.w3.org/2000/svg" viewBox="0 0 90.62 118.37"><defs><style>.cls-1{fill:#00a651;}.cls-2{fill:#231f20;}.cls-3{fill:#ed1c24;}</style></defs><title>Asset 5</title><g id="Layer_2" data-name="Layer 2"><g id="Layer_1-2" data-name="Layer 1"><path class="cls-1" d="M70.5,17.36c2.4-3.68,5-7.28,7.22-11.07a4,4,0,0,0-.66-5.07,4,4,0,0,0-5.81.54C70,3.42,68.91,5.3,67.77,7.05l-4.1,6.28,2-.51a45.59,45.59,0,0,0-41.38,0l2,.51C23.72,9.55,21.34,5.69,18.78,2A4.1,4.1,0,0,0,14.35.12a4,4,0,0,0-2.67,5.29c.77,1.93,2.32,3.72,3.45,5.45l4.24,6.5.51-1.95A45.74,45.74,0,0,0,3,36.39,44.77,44.77,0,0,0,0,50c-.13,2.07.46,4.05,2.89,4.18H3.3c7.2.1,14.42,0,21.62,0H85.57c.46,0,.93,0,1.39,0,2.42-.13,3-2.11,2.89-4.18a46.1,46.1,0,0,0-1-7.11,45,45,0,0,0-13.62-23.4A47.23,47.23,0,0,0,70,15.41c-1.52-1-2.95,1.43-1.44,2.46A42.48,42.48,0,0,1,84.43,38a43.69,43.69,0,0,1,1.79,6.22c.23,1.08.41,2.16.55,3.25.06.52.11,1,.16,1.56a7.31,7.31,0,0,1,.12,2c-.14.5,0,.23-.31.34a3.39,3.39,0,0,1-.78,0H5.19a8,8,0,0,1-2.08,0c-.36-.12-.25.18-.29-.54a28.74,28.74,0,0,1,.86-6.77A42.53,42.53,0,0,1,16.37,21.79a43.47,43.47,0,0,1,4.95-3.92,1.45,1.45,0,0,0,.51-2L14.9,5.3c-.39-.6-1-1.31-.45-2,.73-1,1.63-.23,2.09.47l3.79,5.8,3.4,5.22a1.45,1.45,0,0,0,1.95.51,42.6,42.6,0,0,1,38.5,0,1.45,1.45,0,0,0,1.95-.51L73,4.28c.35-.54.66-1.24,1.41-1.24,1.3,0,1.18,1.31.69,2.09-1.19,1.86-2.42,3.7-3.63,5.55L68,15.92C67,17.46,69.5,18.89,70.5,17.36Z" transform="translate(0)"/><path class="cls-1" d="M26.64,34.9c-3.05-.14-3.09-4.75,0-4.75s3.05,4.61,0,4.75c-1.83.08-1.84,2.93,0,2.85a5.23,5.23,0,1,0-5.23-5.23,5.31,5.31,0,0,0,5.23,5.23C28.47,37.83,28.47,35,26.64,34.9Z" transform="translate(0)"/><path class="cls-1" d="M63.17,34.9c-3-.14-3.08-4.75,0-4.75s3.06,4.61,0,4.75c-1.82.08-1.83,2.93,0,2.85A5.23,5.23,0,1,0,58,32.52a5.31,5.31,0,0,0,5.22,5.23C65,37.83,65,35,63.17,34.9Z" transform="translate(0)"/><path class="cls-2" d="M0,75.81c0-2.38,1.36-4,5-4h5V70.52C10,68,9.23,67,5.81,67a12.84,12.84,0,0,0-4.28.74V66.41a13.05,13.05,0,0,1,4.56-.74c3.68,0,5.41,1.39,5.41,4.82v8.89H10.22l-.14-1.67c-1.24,1.33-2.86,2-5.41,2S0,78.5,0,75.81Zm10,.46V73H5c-2.66,0-3.51,1-3.51,2.77s1.36,2.55,3.54,2.55A6.11,6.11,0,0,0,10,76.27Z" transform="translate(0)"/><path class="cls-2" d="M15.61,66H17l.14,1.64a8.05,8.05,0,0,1,5.43-1.93c3.35,0,4.79,1.5,4.79,4.85v8.86H25.77V70.54c0-2.63-.88-3.56-3.88-3.56a6.76,6.76,0,0,0-4.73,2V79.38H15.61Z" transform="translate(0)"/><path class="cls-2" d="M30.87,72.78c0-4.87,2.38-7.11,6.15-7.11a7.1,7.1,0,0,1,4.59,1.42v-6.8h1.55V79.38h-1.3l-.14-1.5a6.55,6.55,0,0,1-4.84,1.78C33.34,79.66,30.87,77.65,30.87,72.78Zm10.74,3.8V68.45A6,6,0,0,0,37.44,67c-3.31,0-5,1.78-5,5.8,0,3.83,1.56,5.61,4.84,5.61A5.69,5.69,0,0,0,41.61,76.58Z" transform="translate(0)"/><path class="cls-2" d="M47.41,66h1.36l.17,1.87a15.18,15.18,0,0,1,5-2.16V67a16.67,16.67,0,0,0-5,2.12V79.38H47.41Z" transform="translate(0)"/><path class="cls-2" d="M55.26,72.67c0-4.53,1.92-7,6.4-7s6.43,2.47,6.43,7-1.9,7-6.43,7S55.26,77.23,55.26,72.67Zm11.27,0c0-3.82-1.33-5.64-4.87-5.64s-4.87,1.82-4.87,5.64,1.3,5.66,4.87,5.66S66.53,76.52,66.53,72.67Z" transform="translate(0)"/><path class="cls-2" d="M72.31,67.26h-2.1l.17-1.3h3.48V79.38H72.31Zm-.2-6.49h1.78v1.7H72.11Z" transform="translate(0)"/><path class="cls-2" d="M77.57,72.78c0-4.87,2.38-7.11,6.15-7.11a7.1,7.1,0,0,1,4.59,1.42v-6.8h1.56V79.38H88.56l-.14-1.5a6.54,6.54,0,0,1-4.84,1.78C80,79.66,77.57,77.65,77.57,72.78Zm10.74,3.8V68.45A6,6,0,0,0,84.15,67c-3.32,0-5.05,1.78-5.05,5.8,0,3.83,1.56,5.61,4.85,5.61A5.67,5.67,0,0,0,88.31,76.58Z" transform="translate(0)"/><path class="cls-2" d="M21.86,110.18v7.71H.41l-.09-5.53,9-9.7c.65-.68,1.19-1.28,1.62-1.81a16.89,16.89,0,0,0,1.1-1.58,6.43,6.43,0,0,0,.67-1.52,5.77,5.77,0,0,0,.2-1.5,2.7,2.7,0,0,0-.72-1.93,2.46,2.46,0,0,0-1.85-.75A5.3,5.3,0,0,0,6.09,96.1L0,91.67a12,12,0,0,1,1.76-2.3,12.82,12.82,0,0,1,2.37-1.88,11,11,0,0,1,3.14-1.32,14.61,14.61,0,0,1,3.83-.48,11.92,11.92,0,0,1,4,.67,10.61,10.61,0,0,1,3.33,1.86,8.58,8.58,0,0,1,2.3,3,9.24,9.24,0,0,1,.86,4,14,14,0,0,1-.38,3.45,11.49,11.49,0,0,1-1.53,3.23,26.35,26.35,0,0,1-3.28,4l-4,4.18v.09Z" transform="translate(0)"/><path class="cls-3" d="M49.47,98a9.09,9.09,0,0,1,5.07,5.26,11.44,11.44,0,0,1,.76,4.17,10.9,10.9,0,0,1-1.52,5.72A10.27,10.27,0,0,1,49.62,117a12.68,12.68,0,0,1-5.94,1.38,14.71,14.71,0,0,1-11.4-4.72l6.09-5a6.25,6.25,0,0,0,4.47,2,3.88,3.88,0,0,0,2.72-1,3.22,3.22,0,0,0,1.12-2.46,4,4,0,0,0-.17-1.17,2.92,2.92,0,0,0-.48-.93,3.86,3.86,0,0,0-.67-.67,3.41,3.41,0,0,0-.79-.48,4.81,4.81,0,0,0-.81-.27,3.49,3.49,0,0,0-.76-.09,4.71,4.71,0,0,0-1.15.13,5,5,0,0,0-1.21.46,9.73,9.73,0,0,0-1.45.92l-4.45-1.76,1-17.21H53.54v7.67h-11l-.25,4a13.59,13.59,0,0,1,3.5-.59A9.07,9.07,0,0,1,49.47,98Z" transform="translate(0)"/><path class="cls-1" d="M78.44,113.09H66.12v-4.9l14-22h6.52v20h4v6.93h-4v4.8H78.44Zm.92-6.28V99.07l-4.85,7.74Z" transform="translate(0)"/></g></g></svg>